<svg width="33" height="20" viewBox="0 0 33 20" fill="none" xmlns="http://www.w3.org/2000/svg">
<path d="M29.8592 3.04736H21.7399V1.07216H29.8598V3.04736H29.8592ZM16.3347 11.147C16.8586 11.9417 17.1204 12.9067 17.1204 14.0396C17.1204 15.2111 16.8252 16.2621 16.2247 17.1905C15.8427 17.8048 15.3684 18.3237 14.7984 18.7415C14.1566 19.2246 13.3966 19.5559 12.523 19.7329C11.6466 19.9102 10.6981 19.9998 9.67629 19.9998H0.595947V0.25293H10.3332C12.7876 0.292035 14.5277 0.988484 15.5552 2.35622C16.1717 3.19507 16.4772 4.20164 16.4772 5.37163C16.4772 6.57889 16.1681 7.54487 15.5455 8.27881C15.1991 8.6903 14.6875 9.06461 14.0103 9.40247C15.0361 9.77028 15.8145 10.3495 16.3347 11.147ZM5.24588 8.03812H9.51235C10.3891 8.03812 11.0979 7.87491 11.6438 7.54864C12.1893 7.22288 12.4615 6.64382 12.4615 5.81242C12.4615 4.89388 12.1011 4.2842 11.3785 3.99076C10.7574 3.7869 9.96279 3.6819 8.99856 3.6819H5.24588V8.03812ZM12.8723 13.7575C12.8723 12.7318 12.4442 12.0226 11.5898 11.6421C11.1121 11.4258 10.4379 11.3153 9.5736 11.3074H5.24588V16.5699H9.50663C10.382 16.5699 11.0595 16.4576 11.5484 16.2235C12.4301 15.7931 12.8723 14.9738 12.8723 13.7575ZM32.8716 10.545C32.9697 11.1911 33.0141 12.1284 32.9961 13.3536H22.4807C22.5388 14.7751 23.0398 15.7692 23.9901 16.3381C24.5632 16.6949 25.258 16.8691 26.0717 16.8691C26.9296 16.8691 27.6289 16.6566 28.1672 16.22C28.4605 15.9885 28.7192 15.6618 28.9428 15.2496H32.7971C32.6961 16.0892 32.232 16.9407 31.3981 17.806C30.106 19.1815 28.2938 19.8711 25.9665 19.8711C24.0439 19.8711 22.3495 19.2895 20.8788 18.1304C19.413 16.9673 18.6768 15.0809 18.6768 12.4641C18.6768 10.0103 19.3377 8.13212 20.664 6.82481C21.9952 5.51507 23.7132 4.86319 25.8308 4.86319C27.086 4.86319 28.2175 5.08292 29.2269 5.52466C30.2332 5.96685 31.0648 6.66278 31.7198 7.61925C32.3126 8.46157 32.6938 9.43552 32.8716 10.545ZM29.0779 10.9135C29.0072 9.93054 28.6721 9.18657 28.0688 8.67813C27.4704 8.16828 26.7228 7.91232 25.8308 7.91232C24.86 7.91232 24.1104 8.18591 23.5778 8.72365C23.0416 9.26028 22.7079 9.98986 22.5711 10.9136H29.0779V10.9135Z" fill="white"/>
</svg>
