<svg width="50" height="53" viewBox="0 0 50 53" fill="none" xmlns="http://www.w3.org/2000/svg">
<rect x="3.88528" y="10.0521" width="13.3972" height="53.4299" transform="rotate(-40.1751 3.88528 10.0521)" stroke="#FF26C2" stroke-width="2"/>
<path fill-rule="evenodd" clip-rule="evenodd" d="M14.0691 23.6637L3.68076 34.0524L0 50.1843L16.1319 46.5046L25.4699 37.1666L24.0449 35.4789L16.5106 43.0132V34.7744C16.5106 34.1668 16.0186 33.6737 15.4099 33.6737H7.17113L15.494 25.3512L14.0691 23.6637ZM34.9711 24.5527L40.2143 19.3095L30.876 9.96995L26.4204 14.4253L24.9951 12.7373L33.3988 4.33323C34.9926 2.7394 37.194 1.75317 39.6255 1.75317C44.4884 1.75317 48.4311 5.69591 48.4311 10.5588C48.4311 12.9903 47.4449 15.1928 45.8511 16.7855L36.3961 26.2405L34.9711 24.5527ZM6.60424 46.2504L14.3092 44.4485V35.8751H5.73579L3.9339 43.5801H6.60424V46.2504ZM41.7707 17.7531L44.2947 15.2291C45.49 14.0337 46.2297 12.3827 46.2297 10.5588C46.2297 6.91219 43.2732 3.95459 39.6255 3.95459C36.7526 3.95459 34.9563 5.88963 34.9563 5.88963L32.4323 8.41355L41.7707 17.7531Z" fill="#FF26C2"/>
<line x1="13.8793" y1="12.4089" x2="19.0234" y2="7.66338" stroke="#FF26C2" stroke-width="2"/>
<line y1="-1" x2="5.91978" y2="-1" transform="matrix(0.724893 -0.688861 0.667132 0.744939 19.5964 17.2355)" stroke="#FF26C2" stroke-width="2"/>
<line x1="21.7179" y1="21.9272" x2="26.8621" y2="17.1817" stroke="#FF26C2" stroke-width="2"/>
<line y1="-1" x2="5.91978" y2="-1" transform="matrix(0.724893 -0.688861 0.667132 0.744939 26.875 26.4738)" stroke="#FF26C2" stroke-width="2"/>
<line x1="29.2765" y1="31.4455" x2="34.4207" y2="26.7" stroke="#FF26C2" stroke-width="2"/>
<line y1="-1" x2="5.91978" y2="-1" transform="matrix(0.724893 -0.688861 0.667132 0.744939 34.9937 36.272)" stroke="#FF26C2" stroke-width="2"/>
<line x1="37.3949" y1="40.9636" x2="42.5391" y2="36.2181" stroke="#FF26C2" stroke-width="2"/>
</svg>
