<svg width="25" height="19" viewBox="0 0 25 19" fill="none" xmlns="http://www.w3.org/2000/svg">
<path d="M23.4675 1.60626L23.9905 1.05973C24.0271 1.09891 24.0621 1.13981 24.0954 1.18232L23.4825 1.82274L16.4666 9.15431L16.1358 9.5L16.4666 9.84569L23.4825 17.1773L24.0954 17.8177C24.0622 17.8601 24.0273 17.9009 23.9908 17.9399L23.4686 17.3943L16.3862 9.9939L16.025 9.61644L15.6638 9.99391L13.7126 12.0327L13.7124 12.033C13.374 12.3871 12.9358 12.5602 12.5006 12.5602C12.0657 12.5602 11.6275 12.3876 11.2879 12.0327L9.33682 9.99391L8.97556 9.61641L8.61432 9.99393L1.53305 17.3943L1.01008 17.9409C0.973272 17.9015 0.93808 17.8604 0.90463 17.8177L1.51748 17.1773L8.53338 9.84569L8.86418 9.5L8.53338 9.15431L1.51748 1.82274L0.90463 1.18232C0.938 1.1397 0.973104 1.09869 1.00981 1.05942L1.53305 1.60624L11.3683 11.8846C11.6659 12.1957 12.0685 12.3733 12.5 12.3733C12.9313 12.3733 13.3343 12.1949 13.6311 11.8847L23.4675 1.60626ZM22.7272 0.5C23.2131 0.5 23.6619 0.710352 23.9864 1.0554L23.2811 0.792126C23.1191 0.731681 22.9332 0.6875 22.7272 0.6875H2.27272C2.06757 0.6875 1.8809 0.731588 1.71875 0.792394L1.01151 1.05761C1.33614 0.711247 1.78583 0.5 2.27272 0.5H22.7272ZM24.3367 2.08486L24.212 1.34936C24.3934 1.64178 24.5 1.99283 24.5 2.375V16.625C24.5 17.0002 24.3973 17.3455 24.2218 17.6347L24.3375 16.9104C24.3493 16.8365 24.3636 16.7365 24.3636 16.625V2.375C24.3636 2.26517 24.3504 2.16579 24.3367 2.08486ZM23.2787 18.2097L23.9763 17.9552C23.6527 18.294 23.2081 18.5 22.7272 18.5H2.27272C1.78872 18.5 1.34149 18.2913 1.01732 17.9486L1.72076 18.2089C1.88152 18.2684 2.06764 18.3125 2.27272 18.3125H22.7272C22.9333 18.3125 23.1183 18.2683 23.2787 18.2097ZM0.662477 16.9103L0.777959 17.6343C0.602651 17.3452 0.5 17.0001 0.5 16.625V2.375C0.5 1.99991 0.602654 1.6548 0.777968 1.36566L0.662478 2.08967C0.650694 2.16355 0.636364 2.2635 0.636364 2.375V16.625C0.636364 16.7365 0.650693 16.8364 0.662477 16.9103Z" fill="white" stroke="white"/>
</svg>
