<svg width="24" height="24" viewBox="0 0 24 24" fill="none" xmlns="http://www.w3.org/2000/svg">
<path d="M23.3637 4.08366C23.0658 3.30538 22.6685 2.64614 22.0185 1.98689C21.3684 1.32765 20.7184 0.924774 19.951 0.62262C19.2107 0.329622 18.353 0.128186 17.1162 0.0732484C15.8703 0.0183113 15.473 0 12.2951 0C9.11714 0 8.7199 0.00915507 7.474 0.0732484C6.22811 0.128186 5.37945 0.329622 4.63914 0.62262C3.87174 0.924774 3.22171 1.32765 2.57167 1.98689C1.92164 2.64614 1.5244 3.30538 1.22647 4.08366C0.937565 4.83447 0.738944 5.7043 0.684775 6.9587C0.630606 8.22226 0.612549 8.62513 0.612549 11.8481C0.612549 15.0711 0.621577 15.474 0.684775 16.7375C0.738944 18.0011 0.937565 18.8617 1.22647 19.6126C1.5244 20.3908 1.92164 21.0501 2.57167 21.7093C3.22171 22.3686 3.87174 22.7714 4.63914 23.0736C5.37945 23.3666 6.23714 23.568 7.474 23.623C8.7199 23.6779 9.11714 23.6962 12.2951 23.6962C15.473 23.6962 15.8703 23.6871 17.1162 23.623C18.362 23.568 19.2107 23.3666 19.951 23.0736C20.7184 22.7714 21.3684 22.3686 22.0185 21.7093C22.6685 21.0501 23.0658 20.3908 23.3637 19.6126C23.6526 18.8617 23.8512 17.9919 23.9054 16.7375C23.9595 15.474 23.9776 15.0711 23.9776 11.8481C23.9776 8.62513 23.9686 8.22226 23.9054 6.9587C23.8512 5.69515 23.6526 4.83447 23.3637 4.08366ZM21.8018 16.6368C21.7476 17.7905 21.558 18.4222 21.3955 18.8343C21.1879 19.3836 20.9261 19.7865 20.5198 20.1986C20.1135 20.6106 19.7253 20.867 19.1746 21.0867C18.7593 21.2515 18.1454 21.4438 17.0078 21.4987C15.7709 21.5537 15.4098 21.572 12.286 21.572C9.16228 21.572 8.79212 21.5628 7.56429 21.4987C6.42673 21.4438 5.80378 21.2515 5.39751 21.0867C4.85582 20.8761 4.45858 20.6106 4.0523 20.1986C3.64603 19.7865 3.39324 19.3928 3.17657 18.8343C3.01406 18.4131 2.82447 17.7905 2.7703 16.6368C2.71613 15.3824 2.69807 15.007 2.69807 11.8481C2.69807 8.68922 2.7071 8.30466 2.7703 7.05942C2.82447 5.90574 3.01406 5.27396 3.17657 4.86194C3.38422 4.31256 3.64603 3.90969 4.0523 3.49766C4.45858 3.08563 4.84679 2.82926 5.39751 2.60951C5.81281 2.4447 6.42673 2.25242 7.56429 2.19748C8.80115 2.14255 9.17131 2.12424 12.286 2.12424C15.4008 2.12424 15.78 2.13339 17.0078 2.19748C18.1454 2.25242 18.7683 2.4447 19.1746 2.60951C19.7163 2.82011 20.1135 3.08563 20.5198 3.49766C20.9261 3.90969 21.1789 4.30341 21.3955 4.86194C21.558 5.28312 21.7476 5.90574 21.8018 7.05942C21.856 8.31382 21.874 8.68922 21.874 11.8481C21.874 15.007 21.856 15.3916 21.8018 16.6368Z" fill="white"/>
<path d="M12.2861 5.75879C8.9727 5.75879 6.28229 8.48733 6.28229 11.8477C6.28229 15.208 8.9727 17.9365 12.2861 17.9365C15.5994 17.9365 18.2898 15.208 18.2898 11.8477C18.2898 8.48733 15.5994 5.75879 12.2861 5.75879ZM12.2861 15.8031C10.1373 15.8031 8.38587 14.036 8.38587 11.8477C8.38587 9.66848 10.1283 7.89218 12.2861 7.89218C14.4438 7.89218 16.1863 9.65932 16.1863 11.8477C16.1863 14.0268 14.4348 15.8031 12.2861 15.8031Z" fill="white"/>
<path d="M18.5247 6.93998C19.2975 6.93998 19.9241 6.30458 19.9241 5.52077C19.9241 4.73696 19.2975 4.10156 18.5247 4.10156C17.7518 4.10156 17.1253 4.73696 17.1253 5.52077C17.1253 6.30458 17.7518 6.93998 18.5247 6.93998Z" fill="white"/>
</svg>
