<svg width="24" height="24" viewBox="0 0 24 24" fill="none" xmlns="http://www.w3.org/2000/svg">
<path d="M5.40915 8.05859H0.401489V23.5138H5.40915V8.05859Z" fill="white"/>
<path d="M2.93872 0.607422C1.22545 0.607422 0.104248 1.76072 0.104248 3.27716C0.104248 4.76116 1.19247 5.94916 2.87265 5.94916H2.90637C4.65261 5.94916 5.73947 4.76116 5.73947 3.27716C5.70649 1.76072 4.65261 0.607422 2.93872 0.607422Z" fill="white"/>
<path d="M17.702 7.69531C15.0418 7.69531 13.8529 9.19774 13.1878 10.2491V10.2992H13.1554C13.1648 10.2835 13.1784 10.2653 13.1878 10.2491V8.05866H8.17957C8.24637 9.50894 8.17957 23.5139 8.17957 23.5139H13.188V14.8824C13.188 14.4195 13.2217 13.9602 13.3539 13.6295C13.7167 12.7056 14.5401 11.7502 15.9241 11.7502C17.7364 11.7502 18.4615 13.1682 18.4615 15.2452V23.5141H23.4691V14.6512C23.4689 9.90397 20.9984 7.69531 17.702 7.69531Z" fill="white"/>
</svg>