<svg width="126" height="51" viewBox="0 0 126 51" fill="none" xmlns="http://www.w3.org/2000/svg">
<path d="M45.7637 2H57.1162C63.3859 2 68.4686 7.08269 68.4686 13.3525C68.4686 19.6223 63.3859 24.705 57.1162 24.705H45.7637V2Z" fill="#2A2A2A"/>
<path d="M80.2371 12.0715C84.0397 12.0715 87.1224 14.6518 87.1224 17.8348C87.1224 21.0178 84.0397 24.0592 80.2371 24.0592C78.7223 24.0976 75.197 23.6673 73.2141 21.6386" stroke="#992CEF" stroke-width="3.5"/>
<path d="M87.3897 3.26406L88.3778 4.04961L90 2H87.3897V3.26406ZM80.5105 13.9899L88.3778 4.04961L86.4016 2.4785L78.5343 12.4188L80.5105 13.9899ZM87.3897 2H72.2549V4.52812H87.3897V2Z" fill="#2A2A2A"/>
<path d="M17.6436 29C25.5724 29 32 23.4046 32 16.5024C32 9.60014 25.5724 3.00496 17.6436 3.00496C14.4851 2.92165 7.13466 3.85481 3 8.25397" stroke="#992CEF" stroke-width="5.5"/>
<path d="M32.5648 46.3643L34.6223 44.7264L38 49H32.5648V46.3643ZM18.2406 24L34.6223 44.7264L30.5073 48.0023L14.1257 27.2759L18.2406 24ZM32.5648 49H5.25238H0V24H5.25238V43.7287H32.5648V49Z" fill="#2A2A2A"/>
<path d="M51.6595 50.188C50.586 50.188 49.6151 50.0563 48.7468 49.7929C47.8944 49.5139 47.2235 49.142 46.7341 48.6771C46.2447 48.2123 46 47.7009 46 47.143C46 46.5387 46.2921 46.1513 46.8761 45.9808C47.9812 47.6389 49.5993 48.468 51.7305 48.468C52.8671 48.468 53.7512 48.2355 54.3826 47.7706C55.0141 47.3057 55.3298 46.6162 55.3298 45.7019C55.3298 45.0975 55.1798 44.6094 54.8799 44.2375C54.5957 43.8656 54.1932 43.5556 53.6722 43.3077C53.167 43.0598 52.4093 42.7653 51.399 42.4244C50.3097 42.0525 49.4257 41.6806 48.7468 41.3087C48.0838 40.9368 47.555 40.4564 47.1603 39.8676C46.7656 39.2632 46.5683 38.5039 46.5683 37.5896C46.5683 36.195 47.0182 35.1335 47.9181 34.4052C48.8337 33.6768 50.1439 33.3127 51.8489 33.3127C53.2854 33.3127 54.4931 33.5529 55.4719 34.0333C56.4507 34.5136 56.94 35.1645 56.94 35.9858C56.94 36.6056 56.648 37.0008 56.0639 37.1712C55.5903 36.4429 55.0062 35.9083 54.3116 35.5674C53.6328 35.211 52.7882 35.0328 51.7778 35.0328C49.5993 35.0328 48.51 35.8231 48.51 37.4037C48.51 37.9925 48.6521 38.4729 48.9363 38.8448C49.2362 39.2167 49.6151 39.5189 50.0729 39.7513C50.5307 39.9838 51.1779 40.255 52.0146 40.5649C53.3407 41.0453 54.3432 41.4637 55.022 41.8201C55.7166 42.161 56.2691 42.6336 56.6795 43.238C57.1058 43.8269 57.3189 44.6094 57.3189 45.5857C57.3189 47.2128 56.7822 48.3905 55.7087 49.1188C54.651 49.8316 53.3013 50.188 51.6595 50.188ZM66.4276 48.1193C66.6013 48.1968 66.7355 48.3052 66.8302 48.4447C66.9249 48.5842 66.9723 48.7469 66.9723 48.9328C66.9723 49.2893 66.7907 49.5759 66.4276 49.7929C66.0645 49.9943 65.6146 50.0951 65.0779 50.0951C64.1307 50.0951 63.3809 49.7696 62.8283 49.1188C62.2758 48.468 61.9995 47.5847 61.9995 46.4689V39.5422H60.2235C60.1446 39.3872 60.1052 39.2167 60.1052 39.0308C60.1052 38.7208 60.2078 38.4807 60.413 38.3102C60.6182 38.1397 60.8866 38.0545 61.2181 38.0545H61.9995V36.3577C61.9995 35.9238 62.11 35.5829 62.331 35.3349C62.5521 35.0715 62.8678 34.9398 63.2782 34.9398C63.515 34.9398 63.7361 34.9708 63.9413 35.0328V38.0545H66.6644C66.7434 38.2095 66.7828 38.3799 66.7828 38.5659C66.7828 38.8758 66.6802 39.116 66.475 39.2865C66.2698 39.4569 66.0014 39.5422 65.6699 39.5422H63.9413V46.4689C63.9413 47.0888 64.0518 47.5614 64.2728 47.8868C64.5096 48.1968 64.8727 48.3517 65.362 48.3517C65.7093 48.3517 66.0645 48.2742 66.4276 48.1193ZM74.0262 50.188C72.8265 50.188 71.8635 49.8084 71.1373 49.0491C70.4111 48.2898 70.048 47.205 70.048 45.7949V39.333C70.048 38.8991 70.1586 38.5581 70.3795 38.3102C70.6006 38.0468 70.9163 37.9151 71.3267 37.9151C71.5635 37.9151 71.7845 37.9461 71.9898 38.008V45.9343C71.9898 46.7556 72.2108 47.4065 72.6528 47.8868C73.1106 48.3672 73.7263 48.6074 74.4998 48.6074C75.3996 48.6074 76.1022 48.1658 76.6073 47.2825C77.1283 46.3992 77.3887 45.1518 77.3887 43.5402V39.333C77.3887 38.8991 77.4993 38.5581 77.7202 38.3102C77.9413 38.0468 78.257 37.9151 78.6674 37.9151C78.9042 37.9151 79.1253 37.9461 79.3305 38.008V48.6307C79.3305 49.0645 79.22 49.4132 78.999 49.6767C78.778 49.9246 78.4622 50.0486 78.0518 50.0486C77.815 50.0486 77.594 50.0176 77.3887 49.9556V47.5149C76.8836 49.297 75.7627 50.188 74.0262 50.188ZM87.9112 50.2113C86.9483 50.2113 86.1037 49.9711 85.3775 49.4907C84.6513 48.9948 84.0909 48.2975 83.6962 47.3987C83.3174 46.4844 83.1279 45.423 83.1279 44.2142C83.1279 42.9281 83.3411 41.8046 83.7673 40.8438C84.2093 39.8676 84.8329 39.116 85.638 38.5891C86.4431 38.0623 87.3824 37.7988 88.4559 37.7988C89.1347 37.7988 89.7188 37.9073 90.2082 38.1242C90.7134 38.3257 91.179 38.6124 91.6053 38.9843V34.4517C91.6053 34.0178 91.7158 33.6768 91.9368 33.4289C92.1736 33.1655 92.4972 33.0338 92.9077 33.0338C93.1288 33.0338 93.3419 33.0647 93.547 33.1267V48.6307C93.547 49.0645 93.4286 49.4132 93.1918 49.6767C92.9706 49.9246 92.6551 50.0486 92.2446 50.0486C92.0552 50.0486 91.8421 50.0176 91.6053 49.9556V48.1425C91.1474 48.8244 90.6186 49.3435 90.0187 49.6999C89.4188 50.0408 88.7163 50.2113 87.9112 50.2113ZM88.148 48.6771C89.1899 48.6771 90.0345 48.2588 90.6818 47.422C91.329 46.5852 91.6526 45.4462 91.6526 44.0051V42.7963C91.6526 41.7116 91.3922 40.8671 90.8712 40.2627C90.366 39.6429 89.6319 39.333 88.669 39.333C87.5481 39.333 86.672 39.7668 86.0405 40.6346C85.4249 41.4869 85.117 42.6956 85.117 44.2607C85.117 45.6864 85.3775 46.7789 85.8985 47.5382C86.4194 48.2975 87.1693 48.6771 88.148 48.6771ZM99.249 36.2415C98.8389 36.2415 98.4913 36.1097 98.2071 35.8463C97.9391 35.5674 97.8046 35.2265 97.8046 34.8236C97.8046 34.4207 97.9391 34.0875 98.2071 33.8241C98.4913 33.5451 98.8389 33.4057 99.249 33.4057C99.6596 33.4057 99.9992 33.5451 100.267 33.8241C100.551 34.0875 100.693 34.4207 100.693 34.8236C100.693 35.2265 100.551 35.5674 100.267 35.8463C99.9992 36.1097 99.6596 36.2415 99.249 36.2415ZM98.9412 50.0486C98.7044 50.0486 98.4837 50.0176 98.2782 49.9556V39.333C98.2782 38.8991 98.389 38.5581 98.6097 38.3102C98.8308 38.0468 99.1467 37.9151 99.5569 37.9151C99.7937 37.9151 100.015 37.9461 100.22 38.008V48.6307C100.22 49.0645 100.11 49.4132 99.8884 49.6767C99.6677 49.9246 99.3518 50.0486 98.9412 50.0486ZM109.464 50.188C108.375 50.188 107.419 49.9401 106.599 49.4442C105.794 48.9328 105.17 48.2123 104.728 47.2825C104.286 46.3372 104.065 45.237 104.065 43.9818C104.065 42.7266 104.286 41.6341 104.728 40.7044C105.17 39.7591 105.794 39.0385 106.599 38.5426C107.419 38.0313 108.375 37.7756 109.464 37.7756C110.553 37.7756 111.5 38.0313 112.306 38.5426C113.126 39.0385 113.758 39.7591 114.2 40.7044C114.642 41.6341 114.863 42.7266 114.863 43.9818C114.863 45.237 114.642 46.3372 114.2 47.2825C113.758 48.2123 113.126 48.9328 112.306 49.4442C111.5 49.9401 110.553 50.188 109.464 50.188ZM109.464 48.5144C110.506 48.5144 111.335 48.1038 111.95 47.2825C112.566 46.4612 112.874 45.361 112.874 43.9818C112.874 42.6026 112.566 41.5024 111.95 40.6811C111.335 39.8598 110.506 39.4492 109.464 39.4492C108.422 39.4492 107.593 39.8598 106.978 40.6811C106.362 41.5024 106.054 42.6026 106.054 43.9818C106.054 45.361 106.362 46.4612 106.978 47.2825C107.593 48.1038 108.422 48.5144 109.464 48.5144ZM121.832 50.188C121.059 50.188 120.349 50.0796 119.701 49.8626C119.054 49.6456 118.541 49.359 118.162 49.0026C117.799 48.6461 117.617 48.2665 117.617 47.8636C117.617 47.3987 117.839 47.112 118.28 47.0036C118.722 47.4684 119.251 47.8636 119.867 48.189C120.498 48.499 121.169 48.6539 121.88 48.6539C122.575 48.6539 123.119 48.4912 123.514 48.1658C123.908 47.8404 124.106 47.391 124.106 46.8176C124.106 46.3062 123.916 45.8801 123.537 45.5392C123.158 45.1983 122.495 44.8806 121.548 44.5862C120.175 44.1368 119.204 43.6409 118.636 43.0985C118.083 42.5407 117.807 41.7891 117.807 40.8438C117.807 39.7436 118.17 38.961 118.896 38.4962C119.638 38.0158 120.569 37.7756 121.69 37.7756C122.874 37.7756 123.821 38.0003 124.532 38.4497C125.258 38.8991 125.621 39.4492 125.621 40.1C125.621 40.5649 125.4 40.8516 124.958 40.9601C124.516 40.4487 124.035 40.038 123.514 39.7281C123.008 39.4182 122.424 39.2632 121.761 39.2632C121.13 39.2632 120.609 39.4104 120.198 39.7049C119.804 39.9838 119.606 40.3557 119.606 40.8206C119.606 41.3474 119.812 41.7814 120.222 42.1223C120.633 42.4632 121.343 42.8041 122.353 43.145C123.695 43.5789 124.635 44.067 125.171 44.6094C125.724 45.1518 126 45.8568 126 46.7246C126 47.8868 125.613 48.7546 124.84 49.328C124.066 49.9013 123.064 50.188 121.832 50.188Z" fill="#2A2A2A"/>
</svg>
