<svg width="100" height="100" viewBox="0 0 100 100" fill="none" xmlns="http://www.w3.org/2000/svg">
<rect width="100" height="100" fill="#F32EBC"/>
<path d="M47.7273 54.2273C47.7273 53.7665 47.4943 53.3762 47.1589 53.1197L47.1727 53.0999L36.0818 44.6454L36.0679 44.6652C35.8364 44.489 35.562 44.3636 35.25 44.3636C34.4847 44.3636 33.8636 44.9948 33.8636 45.7727C33.8636 46.2335 34.0951 46.6238 34.4321 46.8803L34.4182 46.9015L44.0313 54.2273L34.4182 61.5545L34.4321 61.5742C34.0951 61.8321 33.8636 62.2224 33.8636 62.6818C33.8636 63.461 34.4847 64.0909 35.25 64.0909C35.562 64.0909 35.8351 63.9669 36.0679 63.7894L36.0818 63.8092L47.1727 55.356L47.1589 55.3362C47.4943 55.0784 47.7273 54.688 47.7273 54.2273ZM75.4545 19H25.5454C22.483 19 20 21.5237 20 24.6364V75.3636C20 78.4763 22.483 81 25.5454 81H75.4545C78.517 81 81 78.4763 81 75.3636V24.6364C81 21.5237 78.517 19 75.4545 19ZM78.2273 75.3636C78.2273 76.9193 76.9851 78.1818 75.4545 78.1818H25.5454C24.0149 78.1818 22.7727 76.9193 22.7727 75.3636V24.6364C22.7727 23.0807 24.0149 21.8182 25.5454 21.8182H75.4545C76.9851 21.8182 78.2273 23.0807 78.2273 24.6364V75.3636ZM57.4318 64.0909H49.1136C48.3484 64.0909 47.7273 64.7221 47.7273 65.5C47.7273 66.2792 48.3484 66.9091 49.1136 66.9091H57.4318C58.197 66.9091 58.8181 66.2792 58.8181 65.5C58.8181 64.7221 58.197 64.0909 57.4318 64.0909Z" fill="white"/>
</svg>
