<svg width="27" height="26" viewBox="0 0 27 26" fill="none" xmlns="http://www.w3.org/2000/svg">
<path d="M2.32598 21.0384V20.8214C2.32598 20.4833 2.46212 20.1779 2.68326 19.956L2.68427 19.955C2.74052 19.8982 2.81151 19.8437 2.89986 19.7883L2.92157 19.7746L2.94177 19.7589L7.78781 15.9765L7.81236 15.9574L7.83435 15.9353C8.05543 15.7134 8.35888 15.5775 8.69413 15.5775C8.95295 15.5775 9.19224 15.6627 9.39411 15.8091L10.7195 17.1499L11.0757 17.5103L11.1202 17.4651C11.357 17.6011 11.632 17.6809 11.9279 17.6809C12.3847 17.6809 12.7936 17.4936 13.0894 17.197L13.182 17.1296C15.0931 15.7382 16.7887 14.0611 18.1764 12.1374L18.2618 12.019C18.5486 11.7219 18.7271 11.3166 18.7271 10.8684C18.7271 10.5355 18.6276 10.229 18.4607 9.97293L18.4828 9.94341L18.2642 9.72564C18.2469 9.70766 18.2292 9.69008 18.2112 9.67291L18.1753 9.63708L16.8558 8.323C16.7105 8.12258 16.6254 7.88204 16.6254 7.61969C16.6254 7.28158 16.7616 6.97627 16.9827 6.75439L17.0047 6.73233L17.0238 6.70771L20.7927 1.84435L20.8074 1.8253L20.8203 1.80491C20.8778 1.71381 20.9322 1.64197 20.9891 1.58489L2.32598 21.0384ZM2.32598 21.0384C2.40136 21.962 2.96846 23.0331 3.91693 23.9097C4.92752 24.8438 6.31286 25.5 7.82702 25.5C8.6679 25.5 9.46307 25.3053 10.1786 24.9649L10.4977 24.8132L10.5086 24.824C17.0218 21.4551 22.4713 15.9859 25.828 9.44901L25.8167 9.43766L25.9663 9.1204C26.3052 8.40148 26.5 7.60265 26.5 6.75811C26.5 5.23688 25.8453 3.84578 24.9146 2.83158C23.9744 1.80712 22.8109 1.22705 21.8489 1.22705C21.5137 1.22705 21.2103 1.36297 20.9891 1.58489L2.32598 21.0384ZM9.90292 24.3785L10.117 24.8304C10.1502 24.8146 10.1835 24.8027 10.2172 24.7941L10.2715 24.7802L10.3214 24.7547C16.9212 21.3751 22.3888 15.889 25.7572 9.26682L25.7812 9.21979L25.7948 9.1688C25.805 9.13027 25.8188 9.09205 25.8359 9.0559L25.836 9.05565C26.1792 8.32717 26.3553 7.55319 26.3553 6.75811C26.3553 5.21703 25.6837 3.87995 24.8105 2.9333C23.9529 2.00354 22.8278 1.37582 21.8489 1.37582C21.4605 1.37582 21.2044 1.57642 21.09 1.69128L21.0836 1.69772L21.0837 1.69778C21.0419 1.7413 20.9955 1.79939 20.9426 1.88457C20.9314 1.90217 20.9187 1.92053 20.9035 1.94092L17.1382 6.79954C17.138 6.79977 17.1378 6.80001 17.1377 6.80025C17.1212 6.8212 17.1032 6.84159 17.0834 6.86149C16.9684 6.977 16.7701 7.23366 16.7701 7.62026C16.7701 7.81865 16.8261 8.00548 16.9284 8.17008L16.9591 8.21957L17.0004 8.26066L18.2694 9.52392C18.2789 9.53406 18.2871 9.54221 18.2911 9.54622L18.2921 9.54722L18.2974 9.55252L18.3028 9.55767C18.6664 9.90085 18.8718 10.3746 18.8718 10.869C18.8718 11.3336 18.6924 11.777 18.3795 12.1091L18.3475 12.1431L18.3223 12.1824C18.3106 12.2006 18.3021 12.2131 18.2949 12.223L18.2926 12.2261L18.2926 12.2261C16.9177 14.1326 15.2265 15.8235 13.2653 17.2517L13.2617 17.2543C13.2564 17.2583 13.2517 17.2614 13.231 17.2756L13.1962 17.2993L13.1659 17.3285C12.8344 17.6476 12.3903 17.8303 11.9279 17.8303C11.4639 17.8303 11.0132 17.644 10.6778 17.3128L10.6644 17.2996L10.65 17.2874C10.6417 17.2803 10.6322 17.2715 10.621 17.26L10.6179 17.2567L10.6178 17.2567L9.33579 15.9603L9.29502 15.9191L9.24589 15.8883C9.08014 15.7843 8.89249 15.7275 8.69413 15.7275C8.30583 15.7275 8.04976 15.9279 7.93525 16.0428M9.90292 24.3785L10.1175 24.8301C9.3918 25.175 8.61979 25.3513 7.82641 25.3513C6.32303 25.3513 5.01474 24.706 4.07592 23.8586C3.15113 23.0238 2.51989 21.9314 2.46572 20.966L2.46347 20.9259L2.46765 20.886C2.46961 20.8672 2.47066 20.8463 2.47066 20.8225C2.47066 20.4348 2.66953 20.1786 2.78415 20.0635L2.78435 20.0633C2.82915 20.0184 2.8877 19.9707 2.97535 19.916L2.97577 19.9157C2.99654 19.9028 3.01437 19.8903 3.02922 19.8787L3.02933 19.8787L7.87065 16.1006M9.90292 24.3785C9.96472 24.3493 10.0283 24.3263 10.0935 24.3096L9.90292 24.3785ZM7.93525 16.0428L8.28666 16.3929L7.93528 16.0428C7.93527 16.0428 7.93526 16.0428 7.93525 16.0428ZM7.93525 16.0428C7.91808 16.0601 7.89754 16.0785 7.87065 16.1006M7.87065 16.1006L7.8754 16.0969L8.18301 16.4911L7.86658 16.1039C7.86795 16.1028 7.86931 16.1017 7.87065 16.1006Z" fill="white" stroke="white"/>
<path d="M8.77737 13.5573C6.53894 11.953 6.02453 8.83746 7.6284 6.59847C9.23226 4.35949 12.3471 3.84495 14.5855 5.44921" stroke="white" stroke-width="2"/>
<path d="M4.05301 11.0129C1.81458 9.4086 1.30017 6.29302 2.90404 4.05404C4.50791 1.81506 7.6227 1.30051 9.86113 2.90478" stroke="white" stroke-width="2"/>
</svg>
