<svg width="24" height="20" viewBox="0 0 24 20" fill="none" xmlns="http://www.w3.org/2000/svg">
<path d="M7.46675 19.8178C16.2864 19.8178 21.1104 12.5231 21.1104 6.20151C21.1104 5.99664 21.1104 5.79178 21.0958 5.5796C22.0342 4.89915 22.8406 4.06505 23.4858 3.09925C22.6133 3.48703 21.6823 3.74312 20.7292 3.85287C21.7336 3.2529 22.4814 2.31637 22.8406 1.20424C21.9022 1.7603 20.8685 2.1554 19.7981 2.36758C17.9799 0.443303 14.9447 0.348186 13.0166 2.16272C11.7703 3.33338 11.2424 5.07475 11.631 6.73563C7.77467 6.5454 4.1823 4.72355 1.74829 1.73835C0.472633 3.92603 1.12512 6.72099 3.22923 8.12579C2.46676 8.10384 1.71897 7.89898 1.05181 7.52583C1.05181 7.54778 1.05181 7.56241 1.05181 7.58436C1.05181 9.85984 2.66471 11.8207 4.90078 12.2743C4.19697 12.4646 3.4565 12.4938 2.73802 12.3548C3.36852 14.3011 5.16471 15.64 7.21749 15.6766C5.51661 17.0082 3.41984 17.7326 1.26442 17.7326C0.88319 17.7326 0.501958 17.7106 0.120728 17.6667C2.30547 19.0715 4.85679 19.8178 7.46675 19.8178Z" fill="white"/>
</svg>
