<svg width="50" height="49" viewBox="0 0 50 26" fill="none" xmlns="http://www.w3.org/2000/svg">
<path d="M11.6364 25.7455C8.24244 25.7455 5.60001 24.7757 3.70911 22.8364C1.8182 20.897 0.872742 18.1091 0.872742 14.4727V0H4.50911V14.3273C4.50911 19.7818 6.89699 22.5091 11.6727 22.5091C14 22.5091 15.7818 21.8425 17.0182 20.5091C18.2546 19.1515 18.8727 17.0909 18.8727 14.3273V0H22.4V14.4727C22.4 18.1334 21.4546 20.9334 19.5637 22.8727C17.6727 24.7879 15.0303 25.7455 11.6364 25.7455ZM45.5 25.4545L37.8637 14.9455L30.3364 25.4545H26.1546L35.7182 12.4L26.7364 0H30.8818L38.0091 9.78182L45.0637 0H49.0273L40.0455 12.2909L49.6818 25.4545H45.5Z" fill="#FF26C2"/>
</svg>
