<svg width="141" height="191" viewBox="0 0 141 191" fill="none" xmlns="http://www.w3.org/2000/svg">
<path d="M50.2811 0.353271C69.2587 0.353271 85.487 4.28668 98.966 12.1535C112.623 19.8455 122.998 30.859 130.092 45.1941C137.364 59.3543 141 76.1369 141 95.5416C141 114.946 137.364 131.817 130.092 146.151C122.998 160.312 112.623 171.325 98.966 179.192C85.487 186.884 69.2587 190.73 50.2811 190.73C38.5755 190.73 22.5245 189.856 2.1283 188.108L0 182.601C2.30566 177.356 3.81321 171.675 4.52264 165.556C5.40945 159.263 5.85283 150.172 5.85283 138.285L5.85283 52.7987C5.85283 40.911 5.40945 31.9079 4.52264 25.7893C3.81321 19.4958 2.30566 13.7269 0 8.48232L2.1283 2.97553C22.5245 1.22736 38.5755 0.353271 50.2811 0.353271ZM50.8132 171.325C72.0962 171.325 88.3245 164.857 99.4981 151.92C110.849 138.809 116.525 120.016 116.525 95.5416C116.525 71.067 110.849 52.3618 99.4981 39.4251C88.3245 26.3137 72.0962 19.7581 50.8132 19.7581C43.7189 19.7581 35.117 20.1951 25.0075 21.0692C26.7811 25.2648 27.934 29.8975 28.466 34.9672C28.9981 39.8621 29.2642 45.806 29.2642 52.7987L29.2642 138.285C29.2642 145.277 28.9981 151.308 28.466 156.378C27.934 161.273 26.7811 165.818 25.0075 170.014C35.117 170.888 43.7189 171.325 50.8132 171.325Z" fill="#FFB8EB" fill-opacity="0.68"/>
</svg>
