<svg width="141" height="191" viewBox="0 0 141 191" fill="none" xmlns="http://www.w3.org/2000/svg">
<path d="M50.2811 0.0615234C69.2587 0.0615234 85.487 3.99494 98.966 11.8618C112.623 19.5538 122.998 30.5673 130.092 44.9024C137.364 59.0627 141 75.8452 141 95.25C141 114.655 137.364 131.525 130.092 145.86C122.998 160.02 112.623 171.034 98.966 178.9C85.487 186.593 69.2587 190.438 50.2811 190.438C38.5755 190.438 22.5245 189.564 2.1283 187.816L0 182.309C2.30566 177.065 3.81321 171.383 4.52264 165.265C5.40945 158.971 5.85283 149.881 5.85283 137.993V52.507C5.85283 40.6193 5.40945 31.6162 4.52264 25.4976C3.81321 19.2041 2.30566 13.4351 0 8.19058L2.1283 2.68379C22.5245 0.935611 38.5755 0.0615234 50.2811 0.0615234ZM50.8132 171.034C72.0962 171.034 88.3245 164.566 99.4981 151.629C110.849 138.518 116.525 119.725 116.525 95.25C116.525 70.7753 110.849 52.0701 99.4981 39.1334C88.3245 26.022 72.0962 19.4663 50.8132 19.4663C43.7189 19.4663 35.117 19.9034 25.0076 20.7775C26.7811 24.9731 27.934 29.6058 28.466 34.6755C28.9981 39.5704 29.2642 45.5143 29.2642 52.507V137.993C29.2642 144.986 28.9981 151.017 28.466 156.087C27.934 160.981 26.7811 165.527 25.0076 169.723C35.117 170.597 43.7189 171.034 50.8132 171.034Z" fill="#FFD1D1"/>
</svg>
