<svg width="141" height="191" viewBox="0 0 141 191" fill="none" xmlns="http://www.w3.org/2000/svg">
<path d="M50.2811 0.407471C69.2587 0.407471 85.487 4.34088 98.966 12.2077C112.623 19.8997 122.998 30.9132 130.092 45.2483C137.364 59.4085 141 76.1911 141 95.5958C141 115.001 137.364 131.871 130.092 146.206C122.998 160.366 112.623 171.379 98.966 179.246C85.487 186.938 69.2587 190.784 50.2811 190.784C38.5755 190.784 22.5245 189.91 2.1283 188.162L0 182.655C2.30566 177.411 3.81321 171.729 4.52264 165.61C5.40945 159.317 5.85283 150.227 5.85283 138.339L5.85283 52.8529C5.85283 40.9652 5.40945 31.9621 4.52264 25.8435C3.81321 19.55 2.30566 13.7811 0 8.53651L2.1283 3.02973C22.5245 1.28156 38.5755 0.407471 50.2811 0.407471ZM50.8132 171.379C72.0962 171.379 88.3245 164.911 99.4981 151.975C110.849 138.863 116.525 120.071 116.525 95.5958C116.525 71.1212 110.849 52.416 99.4981 39.4793C88.3245 26.3679 72.0962 19.8123 50.8132 19.8123C43.7189 19.8123 35.117 20.2493 25.0075 21.1234C26.7811 25.319 27.934 29.9517 28.466 35.0214C28.9981 39.9163 29.2642 45.8602 29.2642 52.8529L29.2642 138.339C29.2642 145.331 28.9981 151.363 28.466 156.432C27.934 161.327 26.7811 165.873 25.0075 170.068C35.117 170.943 43.7189 171.379 50.8132 171.379Z" fill="#FFFBD7"/>
</svg>
