<svg width="121" height="177" viewBox="0 0 121 177" fill="none" xmlns="http://www.w3.org/2000/svg">
<path d="M101.26 133.038C107.116 148.203 111.101 158.068 113.216 162.634C115.493 167.037 117.933 170.216 120.536 172.173V174.375C116.632 175.842 112.565 176.576 108.336 176.576C103.944 176.576 100.365 175.516 97.5999 173.396C94.9974 171.113 92.5574 167.608 90.2799 162.879C88.0024 158.15 84.8304 150.404 80.7639 139.642C76.2094 127.739 72.3054 119.178 69.0519 113.96C65.9614 108.579 61.6504 104.42 56.1199 101.485C54.8184 101.648 52.9479 101.73 50.5079 101.73H27.3279V160.677C27.3279 165.569 26.0266 169.483 23.4239 172.418C20.9839 175.19 17.4866 176.576 12.9319 176.576C10.6546 176.576 8.29592 176.25 5.85592 175.598V49.3867C5.85592 38.2984 5.44926 29.9007 4.63591 24.1935C3.98525 18.3232 2.60258 12.9421 0.487915 8.05022L2.43992 2.91371C18.0559 1.28309 32.4519 0.467773 45.6279 0.467773C58.9664 0.467773 70.4344 2.58759 80.0319 6.82724C89.7919 11.0669 97.2744 17.0187 102.48 24.6826C107.685 32.3466 110.288 41.2335 110.288 51.3435C110.288 62.1056 107.36 71.5631 101.504 79.7164C95.8104 87.7064 87.7584 93.5766 77.3479 97.3272C82.2279 99.7732 86.3759 103.605 89.7919 108.823C93.2079 114.041 97.0304 122.113 101.26 133.038ZM23.4239 19.7908C25.0506 23.7043 26.1079 28.0254 26.5959 32.7543C27.0839 37.32 27.3279 42.8642 27.3279 49.3867V84.1191H50.0199C62.0574 84.1191 71.4104 81.2657 78.0799 75.5583C84.9119 69.851 88.3279 61.6981 88.3279 51.0989C88.3279 40.8259 84.9934 32.8358 78.3239 27.1286C71.6544 21.4214 61.6504 18.5678 48.3119 18.5678C41.1546 18.5678 32.8586 18.9754 23.4239 19.7908Z" fill="#C9FFD8" fill-opacity="0.79"/>
</svg>
